<svg width="24" height="24" viewBox="0 0 24 24" fill="currentColor" xmlns="http://www.w3.org/2000/svg">
<path d="M22.4868 8.90515L20.4881 7.82415C20.4293 7.79139 20.3705 7.75864 20.3118 7.75864C19.283 3.82774 16.7847 0.584754 12.4347 1.04336C9.76006 1.30542 8.52559 3.8605 7.67323 6.64488C8.81951 7.07073 10.0834 7.62761 11.1709 8.25C12.5523 9.03618 13.728 10.1172 14.4628 11.2964C15.3151 12.6395 15.5209 13.9826 15.0212 15.0963C14.4628 16.3738 12.9932 17.1273 11.2884 17.1273C10.7006 17.1273 10.0834 17.029 9.46614 16.8325H9.43674C8.81951 16.6359 8.23167 16.3411 7.70262 15.948C6.64451 15.1618 5.85093 14.2446 5.23369 13.3274C4.4695 14.1791 3.44079 14.2774 1.79484 13.0653C-0.703479 11.2309 2.79416 21.5823 10.7888 22.8926C15.0506 23.5805 19.4006 20.9599 20.5175 15.1618C20.7233 14.0153 20.8114 12.8033 20.782 11.5257L22.3398 10.8051C23.1628 10.3465 23.2216 9.29824 22.4868 8.90515Z" fill="currentColor"/>
<path d="M13.7869 11.7886C13.1403 10.7404 12.0528 9.75764 10.7889 9.03697C9.76022 8.44734 8.52576 7.92322 7.40886 7.49737C6.23319 7.03877 5.20447 6.71119 4.67541 6.54741L4.52845 6.51465C4.49906 6.51465 4.44028 6.51465 4.41089 6.54741C4.38149 6.58016 4.3521 6.61292 4.3521 6.64568C4.29332 7.56289 4.32271 10.1507 5.73352 12.542C6.29197 13.492 7.05616 14.4092 8.11427 15.1954C8.58454 15.5229 9.08421 15.785 9.64265 15.9816H9.67204C11.5825 16.5712 13.6693 16.0143 14.2278 14.7368C14.6393 13.8523 14.4629 12.8368 13.7869 11.7886Z" fill="currentColor"/>
</svg>
