<svg width="24" height="24" viewBox="0 0 24 24" fill="currentColor" xmlns="http://www.w3.org/2000/svg">
<path d="M18.827 2.80172V4.01874C18.827 5.35278 17.7606 6.42938 16.4393 6.42938H16.2538C14.9556 6.42938 13.8892 5.35278 13.8892 4.01874V2.77832H10.1337V4.01874C10.1337 5.35278 9.06736 6.42938 7.74598 6.42938H7.56053C6.26233 6.42938 5.19595 5.35278 5.19595 4.01874V2.80172C2.85457 2.94215 1 4.9081 1 7.29533V18.4826C1 20.9634 2.99366 22.9996 5.45096 22.9996H18.5488C21.0061 22.9996 22.9998 20.9868 22.9998 18.506V7.29533C23.023 4.9081 21.1684 2.94215 18.827 2.80172ZM20.2643 18.4826C20.2643 19.4187 19.4993 20.2145 18.5488 20.2145H5.45096C4.52367 20.2145 3.73548 19.4421 3.73548 18.4826V9.21448H20.2411V18.4826H20.2643Z" fill="currentColor"/>
<path d="M5.95957 13.8721H8.46323C8.62551 13.8721 8.7646 13.7317 8.7646 13.5679V11.4615C8.7646 11.2977 8.62551 11.1572 8.46323 11.1572H5.95957C5.7973 11.1572 5.6582 11.2977 5.6582 11.4615V13.5679C5.68139 13.7317 5.7973 13.8721 5.95957 13.8721Z" fill="currentColor"/>
<path d="M15.5357 13.8721H18.0394C18.2017 13.8721 18.3408 13.7317 18.3408 13.5679V11.4615C18.3408 11.2977 18.2017 11.1572 18.0394 11.1572H15.5357C15.3735 11.1572 15.2344 11.2977 15.2344 11.4615V13.5679C15.2344 13.7317 15.3735 13.8721 15.5357 13.8721Z" fill="currentColor"/>
<path d="M10.7584 13.8721H13.2621C13.4243 13.8721 13.5634 13.7317 13.5634 13.5679V11.4615C13.5634 11.2977 13.4243 11.1572 13.2621 11.1572H10.7584C10.5961 11.1572 10.457 11.2977 10.457 11.4615V13.5679C10.457 13.7317 10.5961 13.8721 10.7584 13.8721Z" fill="currentColor"/>
<path d="M5.95957 18.2959H8.46323C8.62551 18.2959 8.7646 18.1555 8.7646 17.9917V15.8853C8.7646 15.7215 8.62551 15.5811 8.46323 15.5811H5.95957C5.7973 15.5811 5.6582 15.7215 5.6582 15.8853V17.9917C5.68139 18.1555 5.7973 18.2959 5.95957 18.2959Z" fill="currentColor"/>
<path d="M10.7584 18.2959H13.2621C13.4243 18.2959 13.5634 18.1555 13.5634 17.9917V15.8853C13.5634 15.7215 13.4243 15.5811 13.2621 15.5811H10.7584C10.5961 15.5811 10.457 15.7215 10.457 15.8853V17.9917C10.457 18.1555 10.5961 18.2959 10.7584 18.2959Z" fill="currentColor"/>
<path d="M7.58361 5.30638H7.76906C8.46453 5.30638 9.04408 4.72127 9.04408 4.01914V2.38085C9.04408 1.60851 8.44134 1 7.67634 1C6.91133 1 6.30859 1.60851 6.30859 2.38085V4.01914C6.30859 4.74467 6.86496 5.30638 7.58361 5.30638Z" fill="currentColor"/>
<path d="M16.2545 5.30638H16.4399C17.1354 5.30638 17.7149 4.72127 17.7149 4.01914V2.38085C17.7381 1.63191 17.1122 1 16.3704 1C15.6054 1 15.0026 1.60851 15.0026 2.38085V4.01914C14.9794 4.74467 15.559 5.30638 16.2545 5.30638Z" fill="currentColor"/>
<path d="M16.9492 18.3112H17.263C17.2674 18.3112 17.2709 18.3078 17.2709 18.3035V17.0126C17.2709 17.0083 17.2674 17.0049 17.263 17.0049H16.9492C16.9449 17.0049 16.9414 17.0083 16.9414 17.0126V18.3035C16.9414 18.3078 16.9449 18.3112 16.9492 18.3112Z" fill="currentColor"/>
<path d="M14.8439 14.75C14.8439 15.1915 15.0127 15.9124 15.5726 16.4626C15.9821 16.8651 16.4846 17.0619 16.9007 17.1387C17.0595 17.1807 17.1291 17.1727 17.3144 17.1269C17.6127 17.0569 17.9539 16.907 18.2371 16.6288C18.6666 16.2067 18.7959 15.6535 18.7959 15.3147C18.4512 15.3147 17.8887 15.4418 17.4592 15.8639C17.3225 15.9983 17.2162 16.1458 17.1349 16.2955C17.0212 16.0122 16.846 15.7211 16.5866 15.4663C16.0267 14.9159 15.293 14.7502 14.8438 14.7502L14.8439 14.75Z" fill="currentColor"/>
</svg>
