<svg width="358" height="192" viewBox="0 0 358 192" fill="none" xmlns="http://www.w3.org/2000/svg">
<g clip-path="url(#clip0_177_1059)">
<path d="M6.02068 164.722C11.5813 157.681 14.8956 174.166 34.7631 174.757C52.6419 175.293 55.6063 156.72 56.7848 142.064C56.0114 141.473 54.5568 140.937 54.2622 141.454L52.7708 143.986C48.0939 151.933 40.2132 154.003 32.0748 154.132C21.469 154.299 11.7655 150.362 5.13687 140.918C0.49684 134.339 0.552079 125.801 1.36224 117.706L3.1667 99.5024C4.95274 81.5203 0.607317 66.5136 3.70067 55.6837C6.79402 44.8538 19.462 38.6072 27.6189 37.8495C40.5631 36.6482 62.9899 35.3175 68.974 51.1743C72.0674 59.3614 70.5944 68.066 70.0788 76.5488L69.4896 86.6026C68.9556 95.6768 70.042 105.786 71.1836 114.879L73.0801 130.015C74.0375 137.629 73.7429 145.742 73.0985 153.597C72.896 156.202 71.4598 160.12 70.7601 162.634C64.3708 185.439 43.546 196.824 22.7579 190.041C17.1972 188.23 -4.99017 178.675 1.06764 171.006L6.03909 164.704L6.02068 164.722ZM49.6222 136.206C57.7606 117.78 48.4806 110.72 49.1803 87.5266C49.3644 81.5018 49.3828 75.7357 49.8431 69.8957C50.3955 62.5587 54.9067 47.053 45.4241 42.1555C40.1764 39.4388 33.0875 39.7715 28.5579 43.8004C24.6728 47.2748 23.5128 54.1867 24.0284 59.5647C25.4646 74.9225 24.544 98.7816 22.5554 113.862L20.5668 128.906C19.7014 135.448 23.6417 140.845 28.5027 143.561C36.3834 147.978 45.3872 145.816 49.6406 136.187L49.6222 136.206Z" fill="#F2F0E8"/>
<path d="M287.48 123.491C287.148 100.315 263.248 92.6828 275.309 70.7827C279.488 63.2054 284.331 56.8664 289.505 50.0469C291.309 47.6629 293.206 44.3363 292.304 41.5086C285.233 39.1615 277.831 42.174 272.031 46.4616C260.763 54.815 255.276 67.7333 253.839 81.6126C253.029 89.3377 254.521 96.0463 257.098 103.513C261.278 115.599 263.672 127.279 261.959 140.567L234.432 140.66C231.855 133.212 232.333 125.154 234.58 117.466L240.435 97.5618C242.884 89.2083 242.865 76.4194 240.288 67.7518C235.04 50.1763 226.957 25.4855 234.985 8.00244H261.573C261.444 15.7091 259.658 22.3992 256.841 29.2927L250.691 44.2623C247.34 52.431 244.854 61.6715 248.168 71.3002C254.576 52.3201 268.901 37.9972 288.824 35.6132C294.789 34.8924 301.289 36.297 305.543 40.1041C311.269 45.2233 312.374 54.0388 307.568 59.9897L297.828 72.0579C291.217 80.245 294.053 91.7402 300.276 99.8534C309.299 111.626 314.233 125.579 311.048 140.586L285.086 140.641C285.841 134.579 287.535 128.961 287.461 123.509L287.48 123.491Z" fill="#F2F0E8"/>
<path d="M222.298 124.637C216.424 152.728 181.937 152.987 164.205 145.021C153.747 140.327 148.223 129.238 149.088 116.93C149.383 112.735 149.899 108.983 150.506 104.991L152.439 92.5719C156.085 69.2857 143.638 50.3241 157.632 36.5742C162.088 32.1942 167.814 29.1448 174.056 28.0175C186.466 25.7628 208.893 25.3562 216.921 39.0876C221.193 46.3877 220.567 56.0348 217.455 63.7414C206.905 89.8921 227.987 97.377 222.279 124.637H222.298ZM180.059 144.799C187.774 147.073 197.938 145.04 201.657 135.799C204.051 129.83 202.025 122.086 200.939 115.877L196.888 92.9046C195.654 85.9557 195.949 78.9698 196.685 72.1133L198.49 55.2586C198.913 51.3591 199.208 46.9791 199.374 43.2644C199.742 35.2805 194.494 30.42 187.884 30.3091C183.428 30.2352 178.586 31.418 176.247 35.798C170.447 46.7203 175.014 59.8049 174.756 71.1523C174.572 78.9883 173.596 86.658 172.602 94.3276L170.926 107.246C168.864 123.195 165.181 140.438 180.059 144.818V144.799Z" fill="#F2F0E8"/>
<path d="M123.917 42.5436C120.493 37.8864 106.683 43.4307 101.914 58.6776C96.5191 75.902 101.159 87.8408 104.694 105.601C106.757 115.969 108.174 132.029 104.455 142.526L75.9888 142.323C90.001 106.747 87.5336 75.9944 73.6504 40.8249C77.9774 37.1102 84.1641 36.3894 90.2587 38.2191C94.4937 39.4942 98.1026 43.4122 101.085 49.4001C106.922 42.3958 113.459 37.3689 122.021 37.2396C127.581 37.1471 132.258 38.1636 135.775 41.8598C139.292 45.556 140.249 50.3796 139.384 55.7946L137.211 69.2488C136.456 73.98 137.764 78.0273 141.299 80.6516C138.463 86.6395 131.043 88.8018 125.261 87.4527C118.891 85.9742 113.551 80.744 113.938 73.3146C114.6 60.5442 128.613 48.8826 123.936 42.5436H123.917Z" fill="#F2F0E8"/>
<path d="M344.909 82.3516C344.909 83.8116 342.644 108.114 336.789 100.5C338.354 89.4853 338.096 76.9182 335.924 65.8295L328.356 27.0747C326.754 18.8321 326.791 9.77639 332.609 3.40042C337.157 -1.57099 345.959 -0.868713 350.82 4.01029C358.424 11.6615 359.474 23.3415 356.399 33.5246C349.641 55.8128 345.204 56.4042 344.927 82.3516H344.909Z" fill="#F2F0E8"/>
<path d="M351.537 117.004C356.49 121.218 358.423 133.304 349.567 138.59C345.24 141.177 340.655 141.547 336.273 138.534C331.891 135.522 328.724 130.144 329.994 125.043C331.265 119.942 334.781 114.786 340.434 114.62C344.706 114.509 348.573 114.454 351.537 116.985V117.004Z" fill="#F2F0E8"/>
</g>
<defs>
<clipPath id="clip0_177_1059">
<rect width="358" height="192" fill="white"/>
</clipPath>
</defs>
</svg>
