<svg width="24" height="24" viewBox="0 0 24 24" fill="currentColor" xmlns="http://www.w3.org/2000/svg">
<path d="M4.6887 23.2498C5.20428 20.8643 8.14099 19.0081 11.7643 18.8445L12.7892 18.8438C16.4182 19.004 19.3613 20.8624 19.877 23.2498C19.9604 23.6373 19.6303 23.9998 19.2079 23.9998H5.35893C4.93656 23.9998 4.60534 23.6373 4.6887 23.2498Z" fill="currentColor"/>
<path d="M11.7861 17.2226V19.7285L12.7009 19.7393V17.2226H12.9967C16.1194 17.2226 18.6609 14.5525 18.6609 11.2718V10.4805C18.6609 10.2132 18.4546 10 18.2035 10H17.4503C15.1186 10 13.1136 11.4886 12.247 13.6095C11.3734 11.4886 9.36845 10 7.03674 10H6.28357C6.02908 10 5.82617 10.2168 5.82617 10.4805V11.2718C5.82617 14.5525 8.36767 17.2226 11.4904 17.2226H11.7861ZM6.74097 11.2754V10.9647H7.03674C9.53009 10.9647 11.5729 12.9953 11.7655 15.5606L9.58855 13.2735C9.40972 13.0856 9.12083 13.0856 8.942 13.2735C8.76317 13.4614 8.76317 13.7649 8.942 13.9528L11.119 16.2399C8.67031 16.0411 6.74097 13.8913 6.74097 11.2754ZM17.4435 10.9647H17.7392V11.2754C17.7392 13.8949 15.8065 16.0411 13.3647 16.2435L15.5416 13.9564C15.7205 13.7685 15.7205 13.465 15.5416 13.2771C15.3628 13.0892 15.0739 13.0892 14.8951 13.2771L12.7181 15.5642C12.9073 12.9917 14.9536 10.9647 17.4435 10.9647Z" fill="currentColor"/>
<path d="M11.3537 10.5773L12.0425 11V8.50035L10.2702 7.11757C10.0837 6.97201 10.0837 6.73688 10.2702 6.59132C10.4568 6.44577 10.7581 6.44577 10.9447 6.59132L12.0461 7.44507V5.73758C12.0461 5.52764 12.2577 5.36529 12.5232 5.36529C12.7851 5.36529 13.0003 5.53044 13.0003 5.73758V7.44507L14.0945 6.59132C14.2811 6.44577 14.5824 6.44577 14.769 6.59132C14.9555 6.73688 14.9555 6.97201 14.769 7.11757L13.0003 8.50035V11L13.6855 10.5773C15.4004 9.51645 16.3475 8.10847 16.3475 6.59692C16.3475 5.08537 15.4004 3.6746 13.6855 2.61652L12.8174 2.08188C12.6416 1.97271 12.3976 1.97271 12.2254 2.08188L11.3537 2.61372C9.63883 3.6746 8.69531 5.08817 8.69531 6.59412C8.69531 8.10567 9.63883 9.51645 11.3537 10.5773Z" fill="currentColor"/>
</svg>
