<svg width="24" height="24" viewBox="0 0 24 24" fill="currentColor" xmlns="http://www.w3.org/2000/svg">
<path fill-rule="evenodd" clip-rule="evenodd" d="M2.56753 17.6599C1.57189 16.0061 1 14.0691 1 12C1 9.93092 1.57189 7.99407 2.56753 6.34018L2.56847 6.33924C3.49756 4.79513 4.79602 3.4966 6.34017 2.56753C7.99396 1.57189 9.93091 1 12 1C14.0691 1 16.006 1.57189 17.6599 2.56753L17.6608 2.56847C19.2049 3.49756 20.5025 4.79509 21.4315 6.33922L21.4325 6.34016C22.4281 7.99395 23 9.9309 23 12C23 14.0691 22.4281 16.006 21.4325 17.6598L21.4315 17.6608C20.5024 19.2049 19.2049 20.5025 17.6608 21.4315L17.6599 21.4325C16.0061 22.4281 14.0691 23 12 23C9.93091 23 7.99406 22.4281 6.34017 21.4325L6.33924 21.4315C4.79513 20.5024 3.49756 19.2049 2.56849 17.6608L2.56753 17.6599ZM7.71183 9.42835C7.25995 10.1802 7.00026 11.0597 7.00026 12C7.00026 12.9404 7.25995 13.8198 7.71183 14.5717L7.71277 14.5726C8.13466 15.2748 8.72531 15.8655 9.4275 16.2874L9.42844 16.2883C10.1803 16.7402 11.0597 16.9999 12.0001 16.9999C12.9405 16.9999 13.8198 16.7402 14.5718 16.2883L14.5727 16.2874C15.2749 15.8655 15.8656 15.2748 16.2874 14.5726L16.2884 14.5717C16.7403 13.8198 17 12.9404 17 12C17 11.0597 16.7403 10.1803 16.2884 9.42835L16.2874 9.42741C15.8656 8.7252 15.2749 8.13457 14.5727 7.71268L14.5718 7.71174C13.8199 7.25986 12.9405 7.00017 12.0001 7.00017C11.0597 7.00017 10.1804 7.25986 9.42844 7.71174L9.4275 7.71268C8.72529 8.13457 8.13466 8.72522 7.71277 9.42741L7.71183 9.42835ZM3.17787 7.28984C2.42598 8.69426 1.99939 10.2974 1.99939 12C1.99939 13.7026 2.42595 15.3056 3.17787 16.7101L6.61476 14.6485C6.22101 13.8488 5.99975 12.9497 5.99975 12C5.99975 11.0503 6.221 10.1512 6.61476 9.35155L3.17787 7.28984ZM7.2899 20.8221C8.69433 21.574 10.2974 22.0006 12 22.0006C13.7026 22.0006 15.3056 21.5741 16.7102 20.8221L14.6486 17.3852C13.8489 17.779 12.9498 18.0003 12.0001 18.0003C11.0504 18.0003 10.1513 17.779 9.35161 17.3852L7.2899 20.8221ZM20.8222 16.7101C21.5741 15.3057 22.0007 13.7026 22.0007 12C22.0007 10.2974 21.5741 8.69436 20.8222 7.28984L17.3853 9.35145C17.7791 10.1512 18.0003 11.0502 18.0003 11.9999C18.0003 12.9496 17.7791 13.8487 17.3853 14.6484L20.8222 16.7101ZM16.7102 3.1778C15.3057 2.42591 13.7026 1.99932 12 1.99932C10.2974 1.99932 8.69442 2.42588 7.2899 3.1778L9.35151 6.6147C10.1512 6.22094 11.0503 5.99968 12 5.99968C12.9497 5.99968 13.8488 6.22094 14.6485 6.6147L16.7102 3.1778Z" fill="currentColor"/>
</svg>
