<svg width="24" height="24" viewBox="0 0 24 24" fill="currentColor" xmlns="http://www.w3.org/2000/svg">
<path fill-rule="evenodd" clip-rule="evenodd" d="M15.2259 11.2139C14.3294 11.2139 13.4696 11.5452 12.8357 12.1348C12.2018 12.7245 11.8457 13.5242 11.8457 14.3581V15.1424H12.6889C13.5845 15.1389 14.4427 14.8077 15.078 14.2205C15.3939 13.9298 15.6448 13.5837 15.8162 13.2023C15.9876 12.8208 16.076 12.4116 16.0765 11.9982C16.0765 11.8946 16.0544 11.7921 16.0116 11.6965C15.9688 11.6009 15.906 11.5141 15.8269 11.4412C15.7478 11.3683 15.654 11.3106 15.5508 11.2716C15.4477 11.2326 15.3372 11.213 15.2259 11.2139Z" fill="currentColor"/>
<path fill-rule="evenodd" clip-rule="evenodd" d="M20.3863 6.3625L11 1L1.61373 6.3625C1.12014 6.64377 0.712561 7.03801 0.43001 7.50748C0.147458 7.97695 -0.00060267 8.50592 1.8437e-06 9.04375V19.8581C1.8437e-06 20.6914 0.356414 21.4905 0.990832 22.0798C1.62525 22.669 2.48571 23 3.38291 23H18.6171C19.5143 23 20.3747 22.669 21.0092 22.0798C21.6436 21.4905 22 20.6914 22 19.8581V9.04375C22.0006 8.50592 21.8525 7.97695 21.57 7.50748C21.2874 7.03801 20.8799 6.64377 20.3863 6.3625ZM16.2779 15.3C15.3223 16.1788 14.0326 16.6728 12.6878 16.675H11.8439V19.0331H10.1561V16.7163H9.30485C7.95934 16.7144 6.66962 16.2167 5.7189 15.3325C4.76818 14.4482 4.23419 13.2496 4.23419 12C4.23419 11.3746 4.50169 10.7748 4.97785 10.3326C5.45401 9.89032 6.09982 9.64187 6.77322 9.64187C7.6097 9.64263 8.43308 9.83502 9.17037 10.202C9.90766 10.5689 10.5361 11.0992 11 11.7456C11.1863 11.4862 11.3995 11.2444 11.6366 11.0237C12.1077 10.5858 12.6675 10.2388 13.2836 10.0028C13.8998 9.76681 14.5603 9.64648 15.2268 9.64875C15.8989 9.64875 16.5436 9.89625 17.0195 10.337C17.4955 10.7777 17.7639 11.3758 17.7658 12C17.7683 12.619 17.6387 13.2324 17.3846 13.8047C17.1305 14.377 16.7569 14.8969 16.2853 15.3344L16.2779 15.3Z" fill="currentColor"/>
<path fill-rule="evenodd" clip-rule="evenodd" d="M10.1546 14.3581C10.1551 13.9452 10.0678 13.5363 9.89771 13.1549C9.72761 12.7735 9.47807 12.4271 9.16347 12.1358C8.52819 11.5486 7.67003 11.2174 6.77442 11.2139C6.66307 11.213 6.55263 11.2326 6.44947 11.2716C6.34631 11.3106 6.25249 11.3683 6.1734 11.4412C6.09432 11.5141 6.03155 11.6009 5.98871 11.6965C5.94588 11.7921 5.92382 11.8946 5.92383 11.9982C5.92383 12.8321 6.27995 13.6319 6.91386 14.2215C7.54776 14.8112 8.40752 15.1424 9.304 15.1424H10.1472L10.1546 14.3581Z" fill="currentColor"/>
</svg>
