<svg width="24" height="24" viewBox="0 0 24 24" fill="currentColor" xmlns="http://www.w3.org/2000/svg">
<path d="M11.4498 10.808L11.2761 10.7384C11.0009 10.6213 10.632 10.4799 10.2121 10.3357L10.2126 10.3347C10.1973 10.3319 10.1835 10.3286 10.1702 10.3243C10.1622 10.3211 10.1552 10.3161 10.1477 10.312C8.18072 9.6405 5.0674 8.89943 3.90591 9.96954C3.05513 10.7531 3.30634 12.5484 4.63235 15.1607L4.63136 15.1603C5.49667 16.8126 6.1663 18.5482 6.6304 20.3364C8.4168 19.45 10.2968 18.7375 12.2399 18.2106C15.2834 17.3502 16.9328 16.3175 17.0093 15.2234C17.1376 13.3891 13.0405 11.4132 11.4498 10.808ZM10.2323 11.4191C10.2784 11.398 11.3908 10.9372 12.5947 12.2603L12.5962 12.2598C12.7487 12.4276 12.7223 12.6809 12.5358 12.825C12.3493 12.969 12.074 12.9487 11.9204 12.7804C11.1644 11.9492 10.6039 12.1378 10.5803 12.147C10.3591 12.2265 10.1118 12.135 10.0177 11.9378C9.92471 11.7433 10.0204 11.5134 10.2318 11.4201L10.2323 11.4191ZM7.37392 13.679C6.57477 12.5787 5.5117 12.8604 5.46725 12.8733C5.23986 12.9316 5.00629 12.817 4.9378 12.6114C4.8703 12.4062 4.99227 12.1857 5.21519 12.1124C6.35246 11.854 7.52689 12.3076 8.10363 13.2273C8.23718 13.4095 8.18133 13.6598 7.97899 13.7854C7.7781 13.9104 7.50613 13.864 7.37257 13.6817L7.37392 13.679ZM10.3737 17.7413C10.2758 17.7999 10.1583 17.821 10.0451 17.7998C9.93194 17.7785 9.83427 17.7163 9.77223 17.6276C8.65028 16.0229 7.15128 16.4815 7.08752 16.5021C6.85838 16.5784 6.61045 16.4712 6.53213 16.2639C6.45381 16.0565 6.57444 15.8267 6.80259 15.75C7.55888 15.4949 9.30745 15.4674 10.5096 17.1867C10.5716 17.2754 10.5919 17.3836 10.5666 17.4878C10.5413 17.592 10.4721 17.6841 10.3737 17.7413ZM14.3043 16.3562C14.091 16.463 13.8279 16.3938 13.7149 16.2011C13.4546 15.6832 12.8216 15.4216 12.217 15.5814C11.9871 15.6497 11.7432 15.5343 11.6736 15.3238C11.6025 15.1139 11.7331 14.8881 11.964 14.8202C12.9682 14.5446 14.0298 14.9618 14.4867 15.8136C14.5991 16.0072 14.5171 16.2502 14.3043 16.3562Z" fill="currentColor"/>
<path d="M14.9476 8.14675C15.0985 8.52137 14.9216 9.1309 12.3602 10.5386C12.5847 10.635 12.8605 10.7585 13.1637 10.9063C16.6301 7.5301 20.4192 7.44321 21.8416 7.5534C21.5512 7.34069 20.8796 7.04435 19.3295 6.75204C19.2416 6.73517 19.1637 6.68908 19.1139 6.62523C19.0644 6.5608 19.048 6.48419 19.0679 6.41368C19.0957 6.31307 19.1051 6.09755 19.0031 6.03472C18.9524 6.00448 18.479 5.77986 16.4753 6.87666L16.4756 6.87607C16.3902 6.92316 16.279 6.92875 16.1795 6.89097C16.0773 6.85704 16.0009 6.77969 15.9832 6.68982C15.9263 6.48449 15.7724 6.22396 15.661 6.19978C15.6001 6.18667 15.4128 6.24876 15.134 6.56698L15.133 6.56728C14.9474 6.97666 14.7231 7.37052 14.4616 7.74589C14.6844 7.81194 14.8652 7.96093 14.9476 8.14675Z" fill="currentColor"/>
<path d="M8.13621 3.83847C8.05376 3.90607 7.93628 3.92783 7.82785 3.89643C7.36247 3.75817 7.24211 3.81889 7.24108 3.81923C7.10599 4.02998 7.76997 5.13588 8.63845 6.1361L8.63773 6.13581C8.72093 6.23051 8.7271 6.36092 8.65353 6.45933C8.58027 6.55711 8.44353 6.60218 8.3137 6.57051C7.74751 6.4342 7.52717 6.49342 7.48684 6.55066C7.24749 6.88537 8.27557 8.40079 9.39223 9.62705C10.2892 7.55312 10.205 5.23179 9.15842 3.18212C9.07627 3.04697 9.13099 2.88043 9.28155 2.80912C9.43171 2.73689 9.6212 2.78717 9.70644 2.9213C9.78575 3.05001 11.5916 6.05079 9.95334 9.89917L10.1918 9.99486C13.0585 8.323 12.9373 7.83135 12.9358 7.82553L12.9348 7.82588C12.8274 7.75931 12.6971 7.72674 12.5672 7.73365C12.4536 7.73352 12.3486 7.67775 12.2914 7.5897C12.2352 7.5013 12.2367 7.39366 12.2953 7.30816C13.6506 5.34329 13.3438 4.99384 13.33 4.97997C13.2567 4.90517 12.9183 4.95257 12.6865 5.042C12.5906 5.07923 12.4794 5.07094 12.3904 5.01934C12.3004 4.96808 12.2463 4.88055 12.2442 4.78733C12.1965 2.58359 11.7259 2.37055 11.6716 2.35323C11.5529 2.31469 11.3462 2.47018 11.2797 2.54195C11.2237 2.60125 11.1425 2.63678 11.055 2.63955C10.9666 2.64266 10.8806 2.61273 10.8184 2.55748C9.05594 1.00252 8.46576 1.1026 8.32767 1.16983C7.87491 1.38939 8.00281 2.73366 8.22998 3.57202L8.22926 3.57173C8.25556 3.6701 8.22002 3.77166 8.13613 3.83868L8.13621 3.83847Z" fill="currentColor"/>
<path d="M13.3508 11.4414C13.4683 11.5062 13.5857 11.5742 13.7038 11.6453C15.8362 11.7412 16.7427 11.49 16.8298 11.2943C16.8547 11.238 16.7943 11.0636 16.4083 10.766C16.3197 10.6973 16.2889 10.5855 16.3322 10.4872C16.3756 10.3889 16.4836 10.3261 16.5998 10.3314C17.8297 10.3838 19.0433 10.2484 19.1499 10.0477C19.1481 10.0469 19.1299 9.93685 18.7991 9.71077C18.7207 9.65766 18.6804 9.56978 18.6935 9.48105C18.7074 9.39257 18.7723 9.31715 18.864 9.28428C19.4956 9.05741 20.3557 8.62053 20.6483 8.24613C19.6377 8.1931 16.4122 8.30672 13.3508 11.4414Z" fill="currentColor"/>
</svg>
