<svg width="24" height="24" viewBox="0 0 24 24" fill="currentColor" xmlns="http://www.w3.org/2000/svg">
<path d="M14.8938 9.94504C13.7577 11.5152 13.0836 13.6181 13.3356 16.672C13.3377 16.6935 13.3335 16.7151 13.3356 16.7388L18.092 21.2746H21.3197C21.7838 21.2746 22.1596 21.6606 22.1596 22.1373C22.1596 22.6139 21.7838 23 21.3197 23H3.67994C3.21584 23 2.83995 22.6139 2.83995 22.1373C2.83995 21.6606 3.21584 21.2746 3.67994 21.2746H6.90764L11.6578 16.7432C11.5843 15.8007 11.5885 14.9358 11.6599 14.1379C11.3092 13.3873 10.8514 12.6928 10.2676 12.0415C9.31422 12.3952 8.41126 12.572 7.58175 12.572C6.25248 12.572 5.108 12.1213 4.22611 11.2284C2.10934 9.08238 2.04214 5.60792 2.00854 3.93855C2.00644 3.81561 2.00434 3.7013 2.00014 3.59992C1.99594 3.43385 2.08414 3.28074 2.22694 3.20523C2.36974 3.12973 2.54404 3.14484 2.67212 3.24405C2.95981 3.4662 3.73892 3.57188 4.5642 3.68187C7.23745 4.0399 11.6389 4.633 11.2989 10.6481C11.6076 10.9738 11.889 11.3081 12.1451 11.6553C12.5105 10.5101 13.0439 9.54386 13.6802 8.71356C13.4513 6.96443 13.7096 5.52362 14.453 4.42598C15.8054 2.42449 18.4409 1.95432 20.3665 1.61148C21.2233 1.45835 22.0339 1.31385 22.3279 1.08739C22.456 0.98818 22.6303 0.970926 22.7731 1.04857C22.9159 1.12406 23.0041 1.27935 22.9999 1.44326C22.9978 1.54463 22.9957 1.65894 22.9915 1.78189C22.9579 3.45123 22.8907 6.92583 20.7739 9.0717C19.8919 9.96461 18.7474 10.4154 17.4182 10.4154C16.6371 10.4175 15.7887 10.2601 14.8941 9.9452L14.8938 9.94504Z" fill="currentColor"/>
</svg>
