<svg width="24" height="24" viewBox="0 0 24 24" fill="currentColor" xmlns="http://www.w3.org/2000/svg">
<path d="M17.3799 2.47003C17.2181 1.88076 16.7227 1.4015 16.0049 1.15794C15.2971 0.914377 14.468 0.953652 13.7906 1.2679C12.557 1.84149 11.4246 1.8493 10.2113 1.28363C9.53388 0.969333 8.70478 0.930058 7.98695 1.17362C7.27917 1.40932 6.78375 1.88863 6.62194 2.48576L5.68164 5.98992H18.3202L17.3799 2.47003Z" fill="currentColor"/>
<path d="M19.1373 15.7972C18.7434 15.7174 19.3264 15.6775 18.8959 15.6775H16.637C19.1283 15.0588 20.9378 13.244 20.9378 11.1053V10.0443C21.3524 10.0443 21.7266 9.84791 21.8783 9.54935C22.03 9.25078 21.9289 8.90507 21.6256 8.68506L20.0685 7.56152H3.93155L2.37443 8.68506C2.07112 8.90507 1.97004 9.25078 2.12166 9.54935C2.27335 9.84791 2.64745 10.0443 3.06197 10.0443L3.06215 11.1053C3.06215 13.244 4.87204 15.0588 7.36347 15.6775H6.10628C5.6748 15.6775 5.25664 15.7174 4.87106 15.7949C2.59217 16.2361 1 17.819 1 19.6459V22.2147C1 22.649 1.45272 23.0004 2.01109 23.0004H21.9889C22.5478 23.0004 23 22.649 23 22.2147V19.6459C23 17.819 21.4083 16.2361 19.1373 15.7972ZM20.9778 21.429H19.8956V17.8277C20.5632 18.2715 20.9778 18.9253 20.9778 19.6459V21.429ZM3.02217 19.6459C3.02217 18.9263 3.4357 18.2735 4.10435 17.8291V21.429H3.02217V19.6459ZM8.6617 17.2489C8.75001 17.8379 9.07801 18.394 9.60854 18.7965C10.2306 19.2906 11.1025 19.5745 12 19.5745C13.7307 19.5745 15.1445 18.5541 15.3381 17.2489H15.8923V20.0932H8.10722V17.2489H8.6617ZM15.5586 10.0443V11.5687C15.5586 12.5432 14.9177 13.4248 13.8395 13.9304C13.5028 14.0892 13.1483 14.2028 12.7968 14.2657C12.2676 14.3547 11.7201 14.3524 11.2155 14.268C10.8507 14.2028 10.4962 14.0892 10.1565 13.9281C9.08226 13.4248 8.44095 12.5432 8.44095 11.5687V10.0443H15.5586ZM10.6453 15.7699C10.6893 15.7786 10.7303 15.7939 10.7746 15.8018C11.1834 15.8701 11.5957 15.9054 12 15.9054C12.4043 15.9054 12.8166 15.8701 13.2372 15.7995C13.2771 15.7923 13.315 15.7783 13.3547 15.7705V16.9504C13.3547 17.5312 12.747 18.0031 12 18.0031C11.2877 18.0132 10.6305 17.5167 10.6453 16.9504V15.7699ZM16.6396 13.9686C17.2401 13.2714 17.5807 12.4462 17.5807 11.5687V10.0443H18.9157V11.1053C18.9157 12.3573 17.9839 13.4333 16.6396 13.9686ZM5.08432 10.0443H6.41878V11.5687C6.41878 12.446 6.75906 13.2711 7.35859 13.9678C6.01519 13.4322 5.08432 12.3567 5.08432 11.1053V10.0443Z" fill="currentColor"/>
<path d="M10.0186 12.9134C10.2284 13.0047 10.4264 13.0845 10.5987 13.1336C11.0677 13.2863 11.5406 13.3615 12.0087 13.3615C12.4673 13.3615 12.9215 13.2886 13.3634 13.1451C13.5737 13.0845 13.7702 13.0047 13.9805 12.9134C14.4673 12.7009 14.641 12.2221 14.3675 11.8438C14.094 11.4648 13.4759 11.3313 12.9911 11.5431C12.8771 11.5929 12.7724 11.639 12.6208 11.6835C12.1898 11.8224 11.8067 11.8239 11.3412 11.672C11.2271 11.639 11.122 11.5929 11.0079 11.5431C10.5216 11.3305 9.90453 11.4656 9.63152 11.8438C9.35801 12.2221 9.53179 12.7009 10.0186 12.9134Z" fill="currentColor"/>
</svg>
