<svg width="24" height="24" viewBox="0 0 24 24" fill="currentColor" xmlns="http://www.w3.org/2000/svg">
<path d="M15.5676 7.4931C14.2522 8.44317 13.7025 9.86016 14.2127 10.9248C13.9571 11.2065 13.7121 11.5053 13.4959 11.8138C13.3372 12.0362 13.1944 12.2826 13.0485 12.5232C12.8589 10.8236 12.4392 9.33789 11.7575 8.047C11.7277 7.98493 11.6883 7.92383 11.6499 7.86176C11.6798 7.82643 11.7192 7.7997 11.7384 7.76532C12.7108 6.4801 12.337 4.50082 10.8159 3.00435C7.25199 -0.48944 1.59795 1.36775 1.00896 2.72268C0.861966 3.06546 2.55983 2.96903 3.47269 5.42497C4.95539 9.3942 8.00819 9.90411 10.0991 8.99796C9.28425 7.48453 8.08702 6.15536 6.5458 5.02874C6.32957 4.87882 6.30081 4.59715 6.46698 4.41287C6.6438 4.21903 6.94843 4.19325 7.154 4.34221C8.79328 5.53004 10.0597 6.93841 10.9331 8.53119C11.7873 10.2031 12.19 12.2007 12.19 14.6478V18.2744C8.71766 18.4243 5.90332 20.1258 5.40922 22.3125C5.32934 22.6677 5.64675 23 6.05152 23H19.3235C19.7282 23 20.0446 22.6677 19.9647 22.3125C19.4705 20.124 16.65 18.4205 13.1722 18.2736V14.6481C13.1722 14.5583 13.1616 14.48 13.1605 14.3912C13.4811 13.6226 13.8763 12.9122 14.3204 12.2896C14.4674 12.0872 14.6144 11.8847 14.7817 11.6909C15.7147 10.6348 16.8534 9.7287 18.188 9.00694C18.4138 8.87518 18.7184 8.94488 18.8654 9.14731C19.0028 9.35833 18.9347 9.63142 18.6982 9.7546C17.4711 10.423 16.4209 11.2594 15.5569 12.2362C17.03 12.9838 19.219 12.7814 20.7793 10.1069C21.7901 8.34708 23.0566 8.60203 22.998 8.32894C22.7243 7.2471 18.7088 5.23995 15.5675 7.49345L15.5676 7.4931Z" fill="currentColor"/>
</svg>
