<svg width="24" height="24" viewBox="0 0 24 24" fill="currentColor" xmlns="http://www.w3.org/2000/svg">
<path fill-rule="evenodd" clip-rule="evenodd" d="M11.1976 13.5716H18.6785C21.0641 13.5716 23 15.5074 23 17.8932C23 20.279 21.0642 22.2148 18.6785 22.2148H11.1976C12.1876 21.049 12.7857 19.5413 12.7857 17.8932C12.7857 16.245 12.1876 14.7375 11.1976 13.5716ZM12.8024 10.4287H5.32149C2.9359 10.4287 1 8.49188 1 6.10708C1 3.72227 2.93577 1.78547 5.32149 1.78547H12.8024C11.8124 2.9503 11.2143 4.45995 11.2143 6.10708C11.2143 7.7542 11.8124 9.2638 12.8024 10.4287ZM6.1072 12.7858C8.92593 12.7858 11.2141 15.0743 11.2141 17.8929C11.2141 20.7116 8.92577 23 6.1072 23C3.28862 23 1.00025 20.7116 1.00025 17.8929C1.00025 15.0743 3.28862 12.7858 6.1072 12.7858ZM17.8927 1C20.7115 1 22.9997 3.28843 22.9997 6.10708C22.9997 8.92572 20.7113 11.2142 17.8927 11.2142C15.0742 11.2142 12.7858 8.92572 12.7858 6.10708C12.7858 3.28843 15.0742 1 17.8927 1Z" fill="currentColor"/>
</svg>
