<svg width="24" height="24" viewBox="0 0 24 24" fill="currentColor" xmlns="http://www.w3.org/2000/svg">
<path d="M19.136 12C19.136 15.9417 15.9413 19.1366 12 19.1366C8.05875 19.1366 4.86409 15.9417 4.86409 12C4.86409 8.05835 8.05875 4.86338 12 4.86338C15.9413 4.86338 19.136 8.05835 19.136 12Z" fill="currentColor"/>
<path d="M12 3.32049C12.1655 3.32049 12.2965 3.18835 12.2965 3.02399V1.2965C12.2965 1.13106 12.1644 1 12 1C11.8346 1 11.7036 1.13214 11.7036 1.2965V3.02399C11.7036 3.18836 11.8346 3.32049 12 3.32049Z" fill="currentColor"/>
<path d="M5.44076 5.86145C5.49877 5.91946 5.57504 5.94954 5.65023 5.94954C5.72435 5.94954 5.8017 5.91946 5.8597 5.86145C5.97572 5.74542 5.97572 5.55634 5.8597 5.44033L4.63833 4.21883C4.52231 4.10281 4.33324 4.10281 4.21725 4.21883C4.10125 4.33486 4.10123 4.52395 4.21725 4.63995L5.44076 5.86145Z" fill="currentColor"/>
<path d="M3.0238 11.7035H1.29648C1.13212 11.7035 1 11.8346 1 12C1 12.1655 1.13213 12.2965 1.29648 12.2965H3.0238C3.18923 12.2965 3.32027 12.1644 3.32027 12C3.32135 11.8346 3.18922 11.7035 3.0238 11.7035Z" fill="currentColor"/>
<path d="M5.44076 18.1386L4.21938 19.36C4.10337 19.4761 4.10337 19.6652 4.21938 19.7812C4.27739 19.8392 4.35366 19.8693 4.42885 19.8693C4.50297 19.8693 4.58032 19.8392 4.63833 19.7812L5.8597 18.5597C5.97572 18.4436 5.97572 18.2546 5.8597 18.1386C5.74369 18.0225 5.5589 18.0204 5.44076 18.1386Z" fill="currentColor"/>
<path d="M12 20.6795C11.8346 20.6795 11.7036 20.8116 11.7036 20.976V22.7035C11.7036 22.8689 11.8357 23 12 23C12.1655 23 12.2965 22.8679 12.2965 22.7035V20.976C12.2965 20.8116 12.1655 20.6795 12 20.6795Z" fill="currentColor"/>
<path d="M18.5593 18.1386C18.4433 18.0225 18.2542 18.0225 18.1382 18.1386C18.0222 18.2546 18.0222 18.4437 18.1382 18.5597L19.3596 19.7812C19.4176 19.8392 19.4939 19.8693 19.5691 19.8693C19.6432 19.8693 19.7205 19.8392 19.7785 19.7812C19.8946 19.6651 19.8946 19.4761 19.7785 19.36L18.5593 18.1386Z" fill="currentColor"/>
<path d="M22.7035 11.7035H20.9762C20.8108 11.7035 20.6797 11.8357 20.6797 12C20.6797 12.1655 20.8119 12.2965 20.9762 12.2965H22.7035C22.869 12.2965 23 12.1644 23 12C23 11.8346 22.8679 11.7035 22.7035 11.7035Z" fill="currentColor"/>
<path d="M19.3595 4.22202L18.1382 5.44352C18.0221 5.55955 18.0221 5.74863 18.1382 5.86464C18.1962 5.91943 18.2703 5.94951 18.3466 5.94951C18.4239 5.94951 18.498 5.91943 18.556 5.86141L19.7774 4.63992C19.8934 4.52389 19.8934 4.33481 19.7774 4.2188C19.6614 4.10385 19.4745 4.10385 19.3595 4.22202Z" fill="currentColor"/>
</svg>
