<svg width="24" height="24" viewBox="0 0 24 24" fill="currentColor" xmlns="http://www.w3.org/2000/svg">
<path d="M15.737 13.3895V3.41157C15.737 2.08475 14.6148 1 13.2328 1H11.7673C10.3854 1 9.2631 2.08475 9.2631 3.41157V13.3895C7.84404 14.3936 7 15.9804 7 17.6838C7 20.6155 9.46715 23 12.5 23C15.5328 23 18 20.6153 18 17.6838C18 15.9805 17.1654 14.3936 15.737 13.3895ZM12.5001 20.1401C11.0532 20.1401 9.87531 19.0015 9.87531 17.603C9.87531 16.3568 10.8121 15.3169 12.0364 15.1107V10.3502C12.0364 10.1082 12.2497 9.90199 12.5001 9.90199C12.7598 9.90199 12.9639 10.1082 12.9639 10.3502V15.1107C14.1882 15.3169 15.1249 16.3569 15.1249 17.603C15.1249 19.0015 13.947 20.1401 12.5001 20.1401Z" fill="currentColor"/>
</svg>
