<svg width="24" height="24" viewBox="0 0 24 24" fill="currentColor" xmlns="http://www.w3.org/2000/svg">
<path d="M22.9872 11.3999C21.5326 9.91185 19.9459 8.28427 18.2342 6.51963C18.1416 6.42173 18.042 6.33607 17.9424 6.2553C17.9169 6.23328 17.8775 6.24062 17.8567 6.26754C16.8027 7.62345 16.5549 9.30243 17.3725 10.8786C17.398 10.9251 17.3864 10.9839 17.3494 11.0181L14.1066 13.9453C14.0811 13.9698 14.0371 13.9502 14.0371 13.911L14.0394 8.88635C14.0394 8.84475 14.0209 8.82517 13.9838 8.82517H13.0458C12.9994 8.82517 12.9647 8.78601 12.967 8.73951C13.0064 7.19269 12.5454 5.89063 11.5888 4.83821C10.1412 3.24489 7.86658 2.69176 5.89544 3.16168C4.79289 3.42356 3.83164 3.95222 3.01168 4.7452C2.42103 5.31547 1.98557 5.90531 1.70299 6.51229C1.27216 7.43989 1.04748 8.35525 1.02895 9.25837C1.00579 10.3206 0.996526 11.7499 1.00116 13.5537C1.00116 14.3491 1.05212 14.9537 1.14708 15.3673C1.48757 16.8382 2.46736 18.27 3.82006 18.7448C3.86407 18.7595 3.88491 18.7913 3.88028 18.8403L3.68108 21.9339C3.67877 21.978 3.6973 22 3.73899 22H4.61454H4.91797H6.84974L6.85669 21.9902L13.9329 21.9878C14.0279 21.9878 14.1159 21.9315 14.1599 21.8458C15.8345 18.5735 17.4258 15.5435 19.1607 12.3961C19.1955 12.3349 19.2464 12.3128 19.3113 12.33C20.1984 12.5772 21.0554 12.516 21.8846 12.1513C22.283 11.9751 22.6768 11.7817 22.9918 11.4611C23.0034 11.4391 23.0034 11.4146 22.9872 11.3999ZM11.1904 8.7909C11.1881 8.83006 11.1673 8.84964 11.1279 8.84964L4.02157 8.87167C3.9822 8.87167 3.96135 8.8937 3.96135 8.9353L3.96598 10.1248L3.91039 15.6194C3.91039 15.6267 3.90808 15.6316 3.90808 15.639C3.91966 15.9596 3.92197 16.2631 3.91039 16.5494C3.91039 16.5813 3.89649 16.6082 3.87565 16.6302C3.85249 16.6522 3.82006 16.6547 3.7969 16.6327C3.06727 15.9767 2.71056 15.1519 2.72678 14.1607C2.74763 12.8464 2.74994 11.3657 2.73141 9.7185C2.72678 9.20698 2.77542 8.7493 2.87734 8.34546C3.67182 5.20044 7.16707 3.74663 9.73349 5.5798C10.8106 6.35565 11.2993 7.42765 11.1904 8.7909Z" fill="currentColor"/>
</svg>
